PathFileType	4	(X/Y/Z)	Patient4_TMGait_0pt5_01_right_24.trc.trc
DataRate	CameraRate	NumFrames	NumMarkers	Units	OrigDataRate	OrigDataStartFrame	OrigNumFrames
75.268817204301	75.268817204301	4	33	mm	75.268817204301	1	       141
Frame#	Time	L.ASIS			Sacral			L.Shoulder			Chest			R.Shoulder			Neck			R.ASIS			R.Thigh.Superior			R.Thigh.Lateral			R.Thigh.Inferior			R.Patella			L.Thigh.Superior			L.Thigh.Lateral			L.Thigh.Inferior			L.Patella			L.Shank.Superior			L.Shank.Lateral			L.Shank.Inferior			R.Shank.Superior			R.Shank.Lateral			R.Shank.Inferior			R.Heel			R.Midfoot.Superior			R.Midfoot.Lateral			R.Toe			L.Heel			L.Midfoot.Lateral			L.Midfoot.Superior			L.Toe			L.Elbow			L.Wrist			R.Elbow			R.Wrist			
		X1	Y1	Z1	X2	Y2	Z2	X3	Y3	Z3	X4	Y4	Z4	X5	Y5	Z5	X6	Y6	Z6	X7	Y7	Z7	X8	Y8	Z8	X9	Y9	Z9	X10	Y10	Z10	X11	Y11	Z11	X12	Y12	Z12	X13	Y13	Z13	X14	Y14	Z14	X15	Y15	Z15	X16	Y16	Z16	X17	Y17	Z17	X18	Y18	Z18	X19	Y19	Z19	X20	Y20	Z20	X21	Y21	Z21	X22	Y22	Z22	X23	Y23	Z23	X24	Y24	Z24	X25	Y25	Z25	X26	Y26	Z26	X27	Y27	Z27	X28	Y28	Z28	X29	Y29	Z29	X30	Y30	Z30	X31	Y31	Z31	X32	Y32	Z32	X33	Y33	Z33	

1	31.450000000000	917.242737153699	963.697721480585	295.572967169585	703.041831532684	1000.941767326363	458.622255593619	856.504512081383	1431.037632512546	271.919811449873	968.421033682741	1367.387643565362	429.414668517222	888.932595268289	1441.343356770214	606.150978184769	863.817686128842	1494.738245098995	421.093992780651	932.734857304350	940.217261899434	568.723486825789	1011.889526180328	762.741776887412	535.419949623808	967.458047195472	641.363861463056	602.976108463305	1055.822173142736	601.516306614442	521.994682628384	1070.015761153162	485.142300440793	539.252405115705	975.915607199563	755.883545634259	328.049975911804	893.845188251711	636.414299190782	270.823092087443	975.950672008213	562.026044205383	337.595726592831	976.823303209365	491.053861868718	349.055846969298	950.614376520677	417.708917930318	339.046138801698	863.752673974256	303.551028031372	285.045194002353	910.514208774507	193.334902837715	359.671089160047	987.841937171441	414.901465696556	545.661720681061	865.178155095673	383.962076154679	607.653733070629	839.835867195968	279.144202967398	557.445066618047	634.705253287570	245.474751008210	530.058006670647	791.872711075537	159.542394307713	572.188058403440	684.510343290659	180.780697651756	606.359741315764	835.484923846512	39.403355701566	605.256048291806	778.909813723989	37.418118077056	395.902465091746	854.457394082379	35.171412146809	316.235027585233	936.174844398874	96.876245321570	345.417502758511	1065.049397043053	48.726100411256	319.212324462390	827.552303441238	1078.644198869175	147.042000504896	947.503457673293	844.827415240818	148.681769668033	877.361355744249	1092.372261329697	722.889013432492	1038.115218672786	889.680104286405	686.453617556899	
2	31.463285714286	917.979655444442	964.378000527253	295.331879545557	702.829749580894	1001.416368334159	457.011104019851	858.434068429281	1432.197262745611	271.755975729744	968.636144379841	1368.057482680154	430.220961721198	887.330812276492	1441.371374900180	606.334327346428	864.043416644714	1495.444781005620	421.273429920699	931.795178424149	941.364536760743	568.637165222557	1013.421273841260	766.397179917133	534.377804155208	971.586865547188	644.607252047778	602.370467305599	1059.812874507313	606.027191985889	520.646832421076	1076.436444935041	490.319817966471	538.242413033658	974.031313136782	755.003272254162	328.270972471384	890.745780100976	636.761986592293	270.065273395301	971.595656390206	561.186270004072	337.646444857279	971.613700909090	490.306474686470	349.102675941989	945.192603718130	417.308541774478	338.935313477119	857.925106181223	303.456603215415	284.845920649709	903.808177576252	193.116481002745	359.750270064935	996.461959856847	418.232816866404	545.247422436545	875.195749313389	383.460450212999	607.508601374438	853.104836091224	277.720496658867	557.495151103890	649.492950191374	236.533536263160	530.516451169736	809.814350145393	157.593894427885	573.158757963538	701.797188005753	174.557146650281	607.151772354957	857.943449746626	39.337649646917	606.578292827396	771.737096409166	37.394903326074	395.889242672059	847.363307775627	35.163430318081	316.220734949031	929.083726868911	96.851160059087	345.438591480136	1057.943955036775	48.700667574148	319.191248532384	831.603736773362	1080.478773514363	144.797185896364	958.590965504175	850.773199091143	148.555072461935	868.337269175856	1092.756462168148	722.005782492165	1013.539060786411	879.904017622985	691.524469970420	
3	31.476571428571	918.683696381091	965.015434299572	295.118777453481	702.603913526894	1001.892265469306	455.427175785041	860.363529435464	1433.321133287307	271.617468897962	968.863491500889	1368.692762770108	431.041420318259	885.766898722835	1441.388551160548	606.540309212779	864.288279643806	1496.126365223749	421.469782568593	930.859426243647	942.478833985160	568.564504329447	1014.878370230215	769.972002443839	533.377128566840	975.592032499931	647.794860409129	601.845242925590	1063.664639427401	610.429662904027	519.396435115573	1082.672204803090	495.426734137741	537.357036892969	972.162224229421	754.120824467680	328.497609564271	887.675965288372	637.070247901062	269.348603632950	967.261213135207	560.343950155203	337.700002836420	966.427839309991	489.558502722543	349.151500074253	939.800742754464	416.902774280769	338.830916575508	852.132159289684	303.359644312070	284.650996220228	897.141161011663	192.894456768181	359.827602176070	1004.963605098285	421.481278969685	544.937580293055	885.145941736575	382.765497877462	607.439264333425	866.454855735317	276.118329782948	557.614872799663	664.459146369873	227.203172609471	531.012912840134	827.920402320224	155.440025620857	574.132196349705	719.292028185621	168.035779981320	607.992301057437	880.690615765960	39.215921900637	607.943284046836	764.611714333815	37.370952641889	395.876073051903	840.312099834282	35.153047283173	316.207132292126	922.037529844328	96.823564944155	345.460151035218	1050.885564817266	48.669819874665	319.170868555192	835.638299219026	1082.286787866325	142.582843113865	969.633507629383	856.736944681000	148.442284532340	859.443054552308	1093.160782952624	721.174429172368	989.120697781961	870.534466260049	696.490620858573	
4	31.489857142857	919.337298128190	965.567719655749	294.967398053982	702.360692762333	1002.364132856337	453.903199551135	862.288836231371	1434.369086915041	271.534181859600	969.117872915144	1369.257293852753	431.890993672962	884.286659621353	1441.383672949218	606.789863098107	864.575452513590	1496.754825591482	421.702814274618	929.940150525612	943.520072688963	568.528995528533	1016.173500831890	773.346373999653	532.485008153583	979.286475799593	650.826020353641	601.478936303861	1067.192385702575	614.570056463203	518.359965205855	1088.487186045941	500.360550097151	536.719535017711	970.329490323633	753.233589158110	328.742917415812	884.669002119858	637.307325550107	268.709336206899	962.978006437495	559.498343703958	337.761667684920	961.300219478310	488.809751916673	349.207126896728	934.476865792554	416.485163032489	338.742620696434	846.413974626815	303.259224725825	284.467635510208	890.556921572972	192.665753406035	359.902877124191	1013.182804121379	424.555087724113	544.827390886257	894.956380890653	381.701248828721	607.524060081349	879.941460877157	274.214309468565	557.867730246268	679.826499683325	217.202809446048	531.584357082237	846.336778673450	152.971476020617	575.112979356990	737.218595367499	161.015465491504	608.912277816099	903.942567783393	39.088679835971	609.362423409983	757.581959661511	37.347947456324	395.862617413913	833.347291527653	35.140479033676	316.194680745472	915.082027687829	96.791180067251	345.483098148163	1043.920297327545	48.626391356804	319.151924553379	839.642038831170	1084.032646097843	140.448363144130	980.579822124448	862.748790138897	148.359780641080	850.792805116469	1093.620765709891	720.450181638927	965.103255038890	861.991704135687	701.247027447186	
